<svg id="Calque_1" data-name="Calque 1" xmlns="http://www.w3.org/2000/svg" xmlns:xlink="http://www.w3.org/1999/xlink" viewBox="0 0 46 46"><defs><style>.cls-1{fill:url(#Dégradé_sans_nom_2);}.cls-2{fill:url(#Dégradé_sans_nom_2-2);}.cls-3{fill:url(#Dégradé_sans_nom_2-3);}</style><linearGradient id="Dégradé_sans_nom_2" x1="11.2" y1="50" x2="11.2" y2="4" gradientTransform="matrix(1, 0, 0, -1, 0, 52)" gradientUnits="userSpaceOnUse"><stop offset="0" stop-color="#ffd25f"/><stop offset="1" stop-color="#ff8c22"/></linearGradient><linearGradient id="Dégradé_sans_nom_2-2" x1="39.95" x2="39.95" xlink:href="#Dégradé_sans_nom_2"/><linearGradient id="Dégradé_sans_nom_2-3" x1="31.9" x2="31.9" xlink:href="#Dégradé_sans_nom_2"/></defs><title>logout</title><path class="cls-1" d="M8.9,6.6A2.3,2.3,0,0,0,6.6,8.9V41.1a2.3,2.3,0,0,0,2.3,2.3h9.2a2.3,2.3,0,0,1,0,4.6H8.9A6.9,6.9,0,0,1,2,41.1V8.9A6.9,6.9,0,0,1,8.9,2h9.2a2.3,2.3,0,0,1,0,4.6Z" transform="translate(-2 -2)"/><path class="cls-2" d="M32.57,11.87a2.3,2.3,0,0,1,3.25,0l11.5,11.5a2.3,2.3,0,0,1,0,3.25l-11.5,11.5a2.3,2.3,0,1,1-3.25-3.25L42.45,25l-9.87-9.87A2.3,2.3,0,0,1,32.57,11.87Z" transform="translate(-2 -2)"/><path class="cls-3" d="M15.8,25a2.3,2.3,0,0,1,2.3-2.3H45.7a2.3,2.3,0,0,1,0,4.6H18.1A2.3,2.3,0,0,1,15.8,25Z" transform="translate(-2 -2)"/></svg>