<svg id="Calque_1" data-name="Calque 1" xmlns="http://www.w3.org/2000/svg" xmlns:xlink="http://www.w3.org/1999/xlink" viewBox="0 0 46 46"><defs><style>.cls-1{fill:url(#Dégradé_sans_nom_2);}</style><linearGradient id="Dégradé_sans_nom_2" x1="25" y1="53.49" x2="25" y2="1.66" gradientTransform="matrix(1, 0, 0, -1, 0, 52)" gradientUnits="userSpaceOnUse"><stop offset="0" stop-color="#ffd25f"/><stop offset="1" stop-color="#ff8c22"/></linearGradient></defs><title>settings</title><path class="cls-1" d="M19.14,30.72A8.08,8.08,0,0,0,25,33.1a8.08,8.08,0,0,0,5.86-2.38,8,8,0,0,0,0-11.45A8.08,8.08,0,0,0,25,16.9a8.08,8.08,0,0,0-5.86,2.38,8,8,0,0,0,0,11.45Zm23.43-3.46,5,3.78q.77.54.22,1.51l-4.75,8a1.09,1.09,0,0,1-1.44.43l-5.86-2.27a20.13,20.13,0,0,1-4,2.27l-.88,6a1.07,1.07,0,0,1-1.11,1H20.25a1.07,1.07,0,0,1-1.11-1l-.88-6a18.2,18.2,0,0,1-4-2.27L8.42,41A1.09,1.09,0,0,1,7,40.55l-4.75-8q-.55-1,.22-1.51l5-3.78A17,17,0,0,1,7.31,25a17,17,0,0,1,.11-2.27L2.45,19q-.77-.54-.22-1.51L7,9.45A1.09,1.09,0,0,1,8.42,9l5.86,2.27a20.13,20.13,0,0,1,4-2.27l.88-6a1.07,1.07,0,0,1,1.11-1h9.51a1.07,1.07,0,0,1,1.11,1l.88,6a18.2,18.2,0,0,1,4,2.27L41.58,9A1.09,1.09,0,0,1,43,9.45l4.75,8q.55,1-.22,1.51l-5,3.78A17,17,0,0,1,42.69,25,17,17,0,0,1,42.57,27.27Z" transform="translate(-2 -2)"/></svg>